<mxfile host="app.diagrams.net" modified="2022-03-07T03:59:41.895Z" agent="5.0 (Macintosh; Intel Mac OS X 10_15_7) AppleWebKit/537.36 (KHTML, like Gecko) Chrome/99.0.4844.51 Safari/537.36" etag="Ait6qAI18GnmVwW61IjK" version="16.6.5" type="github">
  <diagram id="kG0RtPw8VmsY4oP9epUX" name="Page-1">
    <mxGraphModel dx="946" dy="589" grid="0" gridSize="10" guides="1" tooltips="1" connect="1" arrows="1" fold="1" page="1" pageScale="1" pageWidth="827" pageHeight="1169" math="0" shadow="0">
      <root>
        <mxCell id="0" />
        <mxCell id="1" parent="0" />
        <mxCell id="mlNeEHwsV1XFxiyBjLAz-47" value="" style="rounded=0;whiteSpace=wrap;html=1;fillColor=#f5f5f5;fontColor=#333333;strokeColor=#666666;glass=0;" vertex="1" parent="1">
          <mxGeometry x="20" y="75" width="331" height="337" as="geometry" />
        </mxCell>
        <mxCell id="mlNeEHwsV1XFxiyBjLAz-46" value="" style="rounded=0;whiteSpace=wrap;html=1;fillColor=#f5f5f5;fontColor=#333333;strokeColor=#666666;glass=0;" vertex="1" parent="1">
          <mxGeometry x="30" y="83" width="331" height="337" as="geometry" />
        </mxCell>
        <mxCell id="mlNeEHwsV1XFxiyBjLAz-45" value="" style="rounded=0;whiteSpace=wrap;html=1;fillColor=#f5f5f5;fontColor=#333333;strokeColor=#666666;glass=0;" vertex="1" parent="1">
          <mxGeometry x="38" y="90" width="331" height="337" as="geometry" />
        </mxCell>
        <mxCell id="mlNeEHwsV1XFxiyBjLAz-44" value="" style="rounded=0;whiteSpace=wrap;html=1;fillColor=#f5f5f5;fontColor=#333333;strokeColor=#666666;glass=0;" vertex="1" parent="1">
          <mxGeometry x="587" y="80" width="331" height="337" as="geometry" />
        </mxCell>
        <mxCell id="mlNeEHwsV1XFxiyBjLAz-43" value="" style="rounded=0;whiteSpace=wrap;html=1;fillColor=#f5f5f5;fontColor=#333333;strokeColor=#666666;glass=0;" vertex="1" parent="1">
          <mxGeometry x="594" y="86" width="331" height="337" as="geometry" />
        </mxCell>
        <mxCell id="mlNeEHwsV1XFxiyBjLAz-39" value="" style="rounded=1;whiteSpace=wrap;html=1;fontSize=12;fillColor=#dae8fc;strokeColor=#6c8ebf;" vertex="1" parent="1">
          <mxGeometry x="83" y="197" width="235" height="149" as="geometry" />
        </mxCell>
        <mxCell id="mlNeEHwsV1XFxiyBjLAz-38" value="" style="rounded=1;whiteSpace=wrap;html=1;fontSize=12;fillColor=#dae8fc;strokeColor=#6c8ebf;" vertex="1" parent="1">
          <mxGeometry x="89" y="201" width="235" height="149" as="geometry" />
        </mxCell>
        <mxCell id="mlNeEHwsV1XFxiyBjLAz-37" value="" style="rounded=1;whiteSpace=wrap;html=1;fontSize=12;fillColor=#dae8fc;strokeColor=#6c8ebf;" vertex="1" parent="1">
          <mxGeometry x="95" y="206" width="235" height="149" as="geometry" />
        </mxCell>
        <mxCell id="mlNeEHwsV1XFxiyBjLAz-3" value="" style="rounded=1;whiteSpace=wrap;html=1;fontSize=12;fillColor=#dae8fc;strokeColor=#6c8ebf;" vertex="1" parent="1">
          <mxGeometry x="101" y="211" width="235" height="149" as="geometry" />
        </mxCell>
        <mxCell id="mlNeEHwsV1XFxiyBjLAz-30" value="" style="rounded=0;whiteSpace=wrap;html=1;fillColor=#f5f5f5;fontColor=#333333;strokeColor=#666666;glass=0;" vertex="1" parent="1">
          <mxGeometry x="601" y="92" width="331" height="337" as="geometry" />
        </mxCell>
        <mxCell id="mlNeEHwsV1XFxiyBjLAz-29" value="" style="rounded=1;whiteSpace=wrap;html=1;fillColor=#dae8fc;strokeColor=#6c8ebf;" vertex="1" parent="1">
          <mxGeometry x="609" y="105" width="286" height="311" as="geometry" />
        </mxCell>
        <mxCell id="mlNeEHwsV1XFxiyBjLAz-28" value="" style="rounded=1;whiteSpace=wrap;html=1;fillColor=#dae8fc;strokeColor=#6c8ebf;" vertex="1" parent="1">
          <mxGeometry x="617" y="110" width="286" height="305" as="geometry" />
        </mxCell>
        <mxCell id="mlNeEHwsV1XFxiyBjLAz-27" value="" style="rounded=1;whiteSpace=wrap;html=1;fillColor=#dae8fc;strokeColor=#6c8ebf;" vertex="1" parent="1">
          <mxGeometry x="624" y="117" width="286" height="300" as="geometry" />
        </mxCell>
        <mxCell id="mlNeEHwsV1XFxiyBjLAz-10" value="&lt;font style=&quot;font-size: 14px&quot;&gt;客户端&lt;/font&gt;" style="text;html=1;strokeColor=none;fillColor=none;align=center;verticalAlign=middle;whiteSpace=wrap;rounded=0;fontSize=12;" vertex="1" parent="1">
          <mxGeometry x="163" y="47" width="99" height="24" as="geometry" />
        </mxCell>
        <mxCell id="mlNeEHwsV1XFxiyBjLAz-11" value="" style="rounded=1;whiteSpace=wrap;html=1;fillColor=#dae8fc;strokeColor=#6c8ebf;" vertex="1" parent="1">
          <mxGeometry x="631" y="123" width="286" height="294" as="geometry" />
        </mxCell>
        <mxCell id="mlNeEHwsV1XFxiyBjLAz-14" style="edgeStyle=orthogonalEdgeStyle;rounded=0;orthogonalLoop=1;jettySize=auto;html=1;entryX=0.5;entryY=0;entryDx=0;entryDy=0;startArrow=classic;startFill=1;" edge="1" parent="1" source="mlNeEHwsV1XFxiyBjLAz-12" target="mlNeEHwsV1XFxiyBjLAz-13">
          <mxGeometry relative="1" as="geometry" />
        </mxCell>
        <mxCell id="mlNeEHwsV1XFxiyBjLAz-12" value="ABR算法模块" style="rounded=1;whiteSpace=wrap;html=1;fontSize=12;fillColor=#d5e8d4;strokeColor=#82b366;" vertex="1" parent="1">
          <mxGeometry x="157" y="225" width="115" height="40" as="geometry" />
        </mxCell>
        <mxCell id="mlNeEHwsV1XFxiyBjLAz-13" value="播放器" style="rounded=1;whiteSpace=wrap;html=1;fontSize=12;fillColor=#d5e8d4;strokeColor=#82b366;" vertex="1" parent="1">
          <mxGeometry x="157" y="306" width="115" height="40" as="geometry" />
        </mxCell>
        <mxCell id="mlNeEHwsV1XFxiyBjLAz-20" style="rounded=0;orthogonalLoop=1;jettySize=auto;html=1;exitX=0.5;exitY=1;exitDx=0;exitDy=0;entryX=0.5;entryY=0;entryDx=0;entryDy=0;startArrow=none;startFill=0;" edge="1" parent="1" source="mlNeEHwsV1XFxiyBjLAz-15" target="mlNeEHwsV1XFxiyBjLAz-16">
          <mxGeometry relative="1" as="geometry" />
        </mxCell>
        <mxCell id="mlNeEHwsV1XFxiyBjLAz-15" value="QoE表" style="rounded=1;whiteSpace=wrap;html=1;fontSize=12;fillColor=#d5e8d4;strokeColor=#82b366;" vertex="1" parent="1">
          <mxGeometry x="683" y="148" width="115" height="40" as="geometry" />
        </mxCell>
        <mxCell id="mlNeEHwsV1XFxiyBjLAz-21" style="edgeStyle=none;rounded=0;orthogonalLoop=1;jettySize=auto;html=1;entryX=0.5;entryY=0;entryDx=0;entryDy=0;startArrow=none;startFill=0;" edge="1" parent="1" source="mlNeEHwsV1XFxiyBjLAz-16" target="mlNeEHwsV1XFxiyBjLAz-18">
          <mxGeometry relative="1" as="geometry" />
        </mxCell>
        <mxCell id="mlNeEHwsV1XFxiyBjLAz-16" value="效用函数计算" style="rounded=1;whiteSpace=wrap;html=1;fontSize=12;fillColor=#d5e8d4;strokeColor=#82b366;" vertex="1" parent="1">
          <mxGeometry x="645" y="217" width="115" height="40" as="geometry" />
        </mxCell>
        <mxCell id="mlNeEHwsV1XFxiyBjLAz-22" style="edgeStyle=none;rounded=0;orthogonalLoop=1;jettySize=auto;html=1;entryX=0.5;entryY=0;entryDx=0;entryDy=0;startArrow=none;startFill=0;" edge="1" parent="1" source="mlNeEHwsV1XFxiyBjLAz-17" target="mlNeEHwsV1XFxiyBjLAz-18">
          <mxGeometry relative="1" as="geometry" />
        </mxCell>
        <mxCell id="mlNeEHwsV1XFxiyBjLAz-17" value="发送速率测量计算" style="rounded=1;whiteSpace=wrap;html=1;fontSize=12;fillColor=#d5e8d4;strokeColor=#82b366;" vertex="1" parent="1">
          <mxGeometry x="790" y="215" width="115" height="40" as="geometry" />
        </mxCell>
        <mxCell id="mlNeEHwsV1XFxiyBjLAz-23" style="edgeStyle=none;rounded=0;orthogonalLoop=1;jettySize=auto;html=1;startArrow=none;startFill=0;" edge="1" parent="1" source="mlNeEHwsV1XFxiyBjLAz-18" target="mlNeEHwsV1XFxiyBjLAz-19">
          <mxGeometry relative="1" as="geometry" />
        </mxCell>
        <mxCell id="mlNeEHwsV1XFxiyBjLAz-18" value="权值计算" style="rounded=1;whiteSpace=wrap;html=1;fontSize=12;fillColor=#d5e8d4;strokeColor=#82b366;" vertex="1" parent="1">
          <mxGeometry x="724" y="288" width="115" height="40" as="geometry" />
        </mxCell>
        <mxCell id="mlNeEHwsV1XFxiyBjLAz-19" value="Cubic参数更改" style="rounded=1;whiteSpace=wrap;html=1;fontSize=12;fillColor=#d5e8d4;strokeColor=#82b366;" vertex="1" parent="1">
          <mxGeometry x="724" y="361" width="115" height="40" as="geometry" />
        </mxCell>
        <mxCell id="mlNeEHwsV1XFxiyBjLAz-24" value="" style="shape=cylinder3;whiteSpace=wrap;html=1;boundedLbl=1;backgroundOutline=1;size=15;rotation=-180;direction=south;fillColor=#d5e8d4;strokeColor=#82b366;" vertex="1" parent="1">
          <mxGeometry x="376" y="234" width="200" height="60" as="geometry" />
        </mxCell>
        <mxCell id="mlNeEHwsV1XFxiyBjLAz-25" value="" style="curved=1;endArrow=classic;html=1;rounded=0;exitX=1;exitY=0.363;exitDx=0;exitDy=0;exitPerimeter=0;" edge="1" parent="1">
          <mxGeometry width="50" height="50" relative="1" as="geometry">
            <mxPoint x="337" y="232.87900000000002" as="sourcePoint" />
            <mxPoint x="618" y="227" as="targetPoint" />
            <Array as="points">
              <mxPoint x="388" y="257" />
              <mxPoint x="567" y="254" />
            </Array>
          </mxGeometry>
        </mxCell>
        <mxCell id="mlNeEHwsV1XFxiyBjLAz-26" value="" style="curved=1;endArrow=none;html=1;rounded=0;startArrow=classic;startFill=1;endFill=0;" edge="1" parent="1">
          <mxGeometry width="50" height="50" relative="1" as="geometry">
            <mxPoint x="336" y="300" as="sourcePoint" />
            <mxPoint x="617" y="296" as="targetPoint" />
            <Array as="points">
              <mxPoint x="389" y="273" />
              <mxPoint x="576" y="278" />
            </Array>
          </mxGeometry>
        </mxCell>
        <mxCell id="mlNeEHwsV1XFxiyBjLAz-31" value="&lt;font style=&quot;font-size: 14px&quot;&gt;瓶颈链路&lt;/font&gt;" style="text;html=1;strokeColor=none;fillColor=none;align=center;verticalAlign=middle;whiteSpace=wrap;rounded=0;" vertex="1" parent="1">
          <mxGeometry x="446" y="301" width="60" height="30" as="geometry" />
        </mxCell>
        <mxCell id="mlNeEHwsV1XFxiyBjLAz-32" value="&lt;font style=&quot;font-size: 9px&quot;&gt;视频块请求+客户端状态&lt;/font&gt;" style="text;html=1;strokeColor=none;fillColor=none;align=center;verticalAlign=middle;whiteSpace=wrap;rounded=0;fontSize=14;rotation=-10;" vertex="1" parent="1">
          <mxGeometry x="466" y="220" width="144" height="30" as="geometry" />
        </mxCell>
        <mxCell id="mlNeEHwsV1XFxiyBjLAz-34" value="&lt;font size=&quot;1&quot;&gt;视频数据&lt;/font&gt;" style="text;html=1;strokeColor=none;fillColor=none;align=center;verticalAlign=middle;whiteSpace=wrap;rounded=0;fontSize=14;rotation=-15;" vertex="1" parent="1">
          <mxGeometry x="344" y="284" width="61" height="30" as="geometry" />
        </mxCell>
        <mxCell id="mlNeEHwsV1XFxiyBjLAz-35" value="&lt;font style=&quot;font-size: 14px&quot;&gt;服务器端&lt;/font&gt;" style="text;html=1;strokeColor=none;fillColor=none;align=center;verticalAlign=middle;whiteSpace=wrap;rounded=0;fontSize=12;" vertex="1" parent="1">
          <mxGeometry x="720" y="59" width="99" height="24" as="geometry" />
        </mxCell>
        <mxCell id="mlNeEHwsV1XFxiyBjLAz-36" value="&lt;font style=&quot;font-size: 14px&quot;&gt;DASH播放器&lt;/font&gt;" style="text;html=1;strokeColor=none;fillColor=none;align=center;verticalAlign=middle;whiteSpace=wrap;rounded=0;fontSize=12;" vertex="1" parent="1">
          <mxGeometry x="169.5" y="171" width="99" height="24" as="geometry" />
        </mxCell>
      </root>
    </mxGraphModel>
  </diagram>
</mxfile>
